<svg xmlns="http://www.w3.org/2000/svg" width="1024" height="1024" viewBox="0 0 1024 1024">
  <defs>
    <linearGradient id="bg" x1="0" y1="0" x2="1" y2="1">
      <stop offset="0%" stop-color="#f6fff2"/>
      <stop offset="55%" stop-color="#e8ffd8"/>
      <stop offset="100%" stop-color="#fff5c9"/>
    </linearGradient>
    <radialGradient id="glow1" cx="20%" cy="15%" r="60%">
      <stop offset="0%" stop-color="#b9e6a8" stop-opacity="0.45"/>
      <stop offset="100%" stop-color="#b9e6a8" stop-opacity="0"/>
    </radialGradient>
    <radialGradient id="glow2" cx="80%" cy="30%" r="55%">
      <stop offset="0%" stop-color="#fff5c9" stop-opacity="0.32"/>
      <stop offset="100%" stop-color="#fff5c9" stop-opacity="0"/>
    </radialGradient>
  </defs>
  <rect width="1024" height="1024" fill="url(#bg)"/>
  <rect width="1024" height="1024" fill="url(#glow1)"/>
  <rect width="1024" height="1024" fill="url(#glow2)"/>
  <g><path d="M40 260C120 230 180 230 250 260S380 290 470 260S620 230 720 260S860 300 940 260V360H40Z" fill="#b9e6a8" opacity="0.25"/>
        <g fill="#fff5c9" opacity="0.2"><ellipse cx="170" cy="95" rx="46" ry="16"/><ellipse cx="680" cy="90" rx="54" ry="18"/></g></g>
  <g opacity="0.14">
    <path d="M0 840Q180 760 340 840T690 840T1024 840V1024H0Z" fill="#4b5a44"/>
  </g>
  <g opacity="0.08">
    <circle cx="112" cy="910" r="84" fill="#f6fff2"/>
    <circle cx="910" cy="870" r="112" fill="#f6fff2"/>
  </g>
</svg>