<svg xmlns="http://www.w3.org/2000/svg" width="1200" height="800" viewBox="0 0 1200 800"><defs>
      <linearGradient id="base" x1="0" y1="0" x2="1" y2="1"><stop stop-color="#f4ffe9"/><stop offset=".55" stop-color="#f9ce69"/><stop offset="1" stop-color="#8dd77b"/></linearGradient>
      <radialGradient id="glow"><stop stop-color="#a7daff" stop-opacity=".75"/><stop offset="1" stop-color="#a7daff" stop-opacity="0"/></radialGradient>
      <filter id="soft"><feGaussianBlur stdDeviation="18"/></filter>
      <pattern id="dots" width="58" height="58" patternUnits="userSpaceOnUse"><circle cx="12" cy="12" r="5" fill="#8dd77b" opacity=".16"/><circle cx="42" cy="34" r="3" fill="#a7daff" opacity=".2"/></pattern>
      <pattern id="grid" width="46" height="46" patternUnits="userSpaceOnUse"><path d="M46 0H0V46" fill="none" stroke="#8dd77b" stroke-opacity=".16" stroke-width="2"/></pattern>
      <pattern id="waves" width="120" height="42" patternUnits="userSpaceOnUse"><path d="M0 21 Q30 0 60 21 T120 21" fill="none" stroke="#8dd77b" stroke-opacity=".20" stroke-width="5"/></pattern>
      <pattern id="stars" width="110" height="110" patternUnits="userSpaceOnUse"><path d="M24 8l5 12 13 1-10 8 3 13-11-7-11 7 3-13-10-8 13-1z" fill="#a7daff" opacity=".25"/><circle cx="82" cy="72" r="4" fill="#8dd77b" opacity=".3"/></pattern>
    </defs><rect width="1200" height="800" rx="70" fill="url(#base)"/><rect width="1200" height="800" fill="url(#dots)"/><g fill="#8dd77b" opacity=".26"><ellipse cx="90" cy="110" rx="30" ry="75" transform="rotate(-35 90 110)"/><ellipse cx="170" cy="75" rx="26" ry="65" transform="rotate(35 170 75)"/><ellipse cx="1080" cy="690" rx="34" ry="80" transform="rotate(40 1080 690)"/><ellipse cx="1010" cy="720" rx="28" ry="60" transform="rotate(-38 1010 720)"/></g><rect x="12" y="12" width="1176" height="776" rx="60" fill="none" stroke="#a7daff" stroke-opacity=".22" stroke-width="5"/></svg>